<svg width="282" height="198" viewBox="0 0 282 198" fill="none" xmlns="http://www.w3.org/2000/svg">
<path d="M230.042 0H57.702C49.7703 0 43.3403 6.33197 43.3403 14.1429V183.857C43.3403 191.668 49.7703 198 57.702 198H230.042C237.974 198 244.404 191.668 244.404 183.857V14.1429C244.404 6.33197 237.974 0 230.042 0Z" fill="url(#paint0_linear_1514_168590)"/>
<g filter="url(#filter0_d_1514_168590)">
<path d="M207.064 14.1426H13.1809C9.21498 14.1426 6 17.3086 6 21.214V56.5711C6 60.4766 9.21498 63.6426 13.1809 63.6426H207.064C211.03 63.6426 214.245 60.4766 214.245 56.5711V21.214C214.245 17.3086 211.03 14.1426 207.064 14.1426Z" fill="white"/>
</g>
<path d="M105.096 25.457H67.7553C65.3758 25.457 63.4468 27.3566 63.4468 29.6999C63.4468 32.0432 65.3758 33.9427 67.7553 33.9427H105.096C107.475 33.9427 109.404 32.0432 109.404 29.6999C109.404 27.3566 107.475 25.457 105.096 25.457Z" fill="#B4DAFF"/>
<path d="M130.947 43.8428H67.7553C65.3758 43.8428 63.4468 45.7424 63.4468 48.0856C63.4468 50.4289 65.3758 52.3285 67.7553 52.3285H130.947C133.326 52.3285 135.255 50.4289 135.255 48.0856C135.255 45.7424 133.326 43.8428 130.947 43.8428Z" fill="#DEE9FC"/>
<path d="M44.7767 18.3857H17.4894C13.5236 18.3857 10.3086 21.5517 10.3086 25.4572V52.3286C10.3086 56.234 13.5236 59.4 17.4894 59.4H44.7767C48.7426 59.4 51.9575 56.234 51.9575 52.3286V25.4572C51.9575 21.5517 48.7426 18.3857 44.7767 18.3857Z" fill="#6BCAFB"/>
<path d="M27.8614 43.5326H30.7338L30.7654 42.4436C30.7654 41.0123 31.6816 40.6389 32.9771 40.2344C34.2765 39.8704 35.4203 39.0997 36.2355 38.0387C37.0506 36.9777 37.4928 35.6843 37.4953 34.3538C37.5237 33.5416 37.3806 32.7323 37.075 31.9773C36.7695 31.2223 36.308 30.5379 35.72 29.9676C35.1319 29.3973 34.4301 28.9534 33.6588 28.6641C32.8875 28.3747 32.0636 28.2461 31.2393 28.2866C30.3681 28.2679 29.5022 28.4236 28.694 28.7444C27.8858 29.0651 27.1522 29.5442 26.5376 30.1526C25.9231 30.7609 25.4405 31.4858 25.119 32.2834C24.7975 33.0809 24.6438 33.9345 24.6674 34.7923H27.6374C27.6261 34.3187 27.7109 33.8476 27.8869 33.4067C28.0629 32.9658 28.3265 32.5639 28.6622 32.2246C28.9979 31.8853 29.3991 31.6154 29.8421 31.4307C30.2851 31.246 30.7611 31.1503 31.2422 31.1491C31.676 31.1243 32.1102 31.1918 32.5152 31.347C32.9201 31.5022 33.2865 31.7414 33.5892 32.0484C33.892 32.3554 34.1241 32.7229 34.2697 33.1261C34.4154 33.5293 34.4712 33.9586 34.4333 34.385C34.4142 35.075 34.1706 35.7407 33.7382 36.2841C33.3059 36.8274 32.7078 37.2197 32.0321 37.403L30.9894 37.8104C29.9686 38.0526 29.0774 38.6635 28.4922 39.5221C27.9071 40.3806 27.6707 41.4243 27.8298 42.4464L27.8614 43.5326ZM29.2832 50.2561C29.5645 50.2659 29.8449 50.2201 30.1079 50.1214C30.3709 50.0227 30.6111 49.8731 30.8143 49.6813C31.0176 49.4896 31.1797 49.2597 31.2912 49.0052C31.4027 48.7508 31.4612 48.4768 31.4633 48.1997C31.4608 47.9228 31.402 47.6492 31.2904 47.395C31.1787 47.1409 31.0165 46.9113 30.8133 46.7199C30.6101 46.5285 30.37 46.3791 30.1072 46.2806C29.8444 46.182 29.5643 46.1363 29.2832 46.1462C29.0022 46.1363 28.722 46.182 28.4592 46.2806C28.1965 46.3791 27.9564 46.5285 27.7532 46.7199C27.5499 46.9113 27.3877 47.1409 27.2761 47.395C27.1645 47.6492 27.1056 47.9228 27.1031 48.1997C27.1053 48.4768 27.1638 48.7508 27.2753 49.0052C27.3867 49.2597 27.5489 49.4896 27.7521 49.6813C27.9554 49.8731 28.1956 50.0227 28.4586 50.1214C28.7216 50.2201 29.002 50.2659 29.2832 50.2561Z" fill="white"/>
<g filter="url(#filter1_d_1514_168590)">
<path d="M74.9362 74.957H268.819C270.724 74.957 272.55 75.7021 273.897 77.0282C275.243 78.3544 276 80.153 276 82.0285V117.386C276 119.261 275.243 121.06 273.897 122.386C272.55 123.712 270.724 124.457 268.819 124.457H74.9362C73.0317 124.457 71.2053 123.712 69.8586 122.386C68.5119 121.06 67.7554 119.261 67.7554 117.386V82.0285C67.7554 80.153 68.5119 78.3544 69.8586 77.0282C71.2053 75.7021 73.0317 74.957 74.9362 74.957V74.957Z" fill="white"/>
</g>
<path d="M166.851 86.2715H129.511C127.131 86.2715 125.202 88.1711 125.202 90.5143C125.202 92.8576 127.131 94.7572 129.511 94.7572H166.851C169.231 94.7572 171.16 92.8576 171.16 90.5143C171.16 88.1711 169.231 86.2715 166.851 86.2715Z" fill="#B4DAFF"/>
<path d="M192.702 104.657H129.511C127.131 104.657 125.202 106.557 125.202 108.9C125.202 111.243 127.131 113.143 129.511 113.143H192.702C195.082 113.143 197.011 111.243 197.011 108.9C197.011 106.557 195.082 104.657 192.702 104.657Z" fill="#DEE9FC"/>
<path d="M106.532 79.2002H79.2446C75.2787 79.2002 72.0637 82.3662 72.0637 86.2716V113.143C72.0637 117.048 75.2787 120.214 79.2446 120.214H106.532C110.498 120.214 113.713 117.048 113.713 113.143V86.2716C113.713 82.3662 110.498 79.2002 106.532 79.2002Z" fill="#6BCAFB"/>
<path d="M89.6166 104.346H92.4889L92.5205 103.257C92.5205 101.826 93.4368 101.452 94.7322 101.048C96.0317 100.684 97.1754 99.9132 97.9906 98.8522C98.8058 97.7912 99.248 96.4977 99.2504 95.1673C99.2788 94.355 99.1357 93.5458 98.8302 92.7908C98.5246 92.0357 98.0632 91.3514 97.4751 90.7811C96.8871 90.2108 96.1852 89.7669 95.4139 89.4775C94.6426 89.1882 93.8188 89.0596 92.9944 89.1C92.1233 89.0813 91.2573 89.2371 90.4491 89.5578C89.6409 89.8786 88.9073 90.3577 88.2928 90.966C87.6782 91.5744 87.1956 92.2993 86.8741 93.0969C86.5526 93.8944 86.399 94.748 86.4225 95.6058H89.3925C89.3812 95.1321 89.4661 94.6611 89.642 94.2202C89.818 93.7792 90.0816 93.3774 90.4173 93.038C90.7531 92.6987 91.1542 92.4288 91.5972 92.2442C92.0402 92.0595 92.5162 91.9637 92.9973 91.9626C93.4311 91.9378 93.8653 92.0053 94.2703 92.1605C94.6753 92.3156 95.0416 92.5548 95.3443 92.8618C95.6471 93.1688 95.8792 93.5364 96.0248 93.9396C96.1705 94.3428 96.2263 94.7721 96.1885 95.1984C96.1693 95.8885 95.9257 96.5542 95.4934 97.0975C95.0611 97.6409 94.463 98.0332 93.7872 98.2165L92.7445 98.6238C91.7237 98.8661 90.8325 99.4769 90.2473 100.336C89.6622 101.194 89.4258 102.238 89.585 103.26L89.6166 104.346ZM91.0384 111.07C91.3196 111.079 91.6 111.034 91.863 110.935C92.126 110.836 92.3662 110.687 92.5695 110.495C92.7727 110.303 92.9349 110.073 93.0463 109.819C93.1578 109.564 93.2163 109.29 93.2185 109.013C93.216 108.736 93.1572 108.463 93.0455 108.209C92.9339 107.954 92.7717 107.725 92.5684 107.533C92.3652 107.342 92.1252 107.193 91.8624 107.094C91.5996 106.996 91.3194 106.95 91.0384 106.96C90.7573 106.95 90.4772 106.996 90.2144 107.094C89.9516 107.193 89.7115 107.342 89.5083 107.533C89.3051 107.725 89.1429 107.954 89.0312 108.209C88.9196 108.463 88.8608 108.736 88.8583 109.013C88.8604 109.29 88.9189 109.564 89.0304 109.819C89.1419 110.073 89.304 110.303 89.5073 110.495C89.7105 110.687 89.9507 110.836 90.2137 110.935C90.4767 111.034 90.7571 111.079 91.0384 111.07Z" fill="white"/>
<g filter="url(#filter2_d_1514_168590)">
<path d="M13.1809 135.771H207.064C208.968 135.771 210.795 136.517 212.141 137.843C213.488 139.169 214.245 140.967 214.245 142.843V178.2C214.245 180.076 213.488 181.874 212.141 183.2C210.795 184.526 208.968 185.271 207.064 185.271H13.1809C11.2764 185.271 9.44989 184.526 8.10322 183.2C6.75655 181.874 6 180.076 6 178.2V142.843C6 140.967 6.75655 139.169 8.10322 137.843C9.44989 136.517 11.2764 135.771 13.1809 135.771V135.771Z" fill="white"/>
</g>
<path d="M105.096 147.086H67.7553C65.3758 147.086 63.4468 148.986 63.4468 151.329C63.4468 153.672 65.3758 155.572 67.7553 155.572H105.096C107.475 155.572 109.404 153.672 109.404 151.329C109.404 148.986 107.475 147.086 105.096 147.086Z" fill="#B4DAFF"/>
<path d="M130.947 165.472H67.7553C65.3758 165.472 63.4468 167.371 63.4468 169.715C63.4468 172.058 65.3758 173.957 67.7553 173.957H130.947C133.326 173.957 135.255 172.058 135.255 169.715C135.255 167.371 133.326 165.472 130.947 165.472Z" fill="#DEE9FC"/>
<path d="M44.7767 140.015H17.4894C13.5236 140.015 10.3086 143.181 10.3086 147.086V173.958C10.3086 177.863 13.5236 181.029 17.4894 181.029H44.7767C48.7426 181.029 51.9575 177.863 51.9575 173.958V147.086C51.9575 143.181 48.7426 140.015 44.7767 140.015Z" fill="#6BCAFB"/>
<path d="M27.8614 165.16H30.7338L30.7654 164.071C30.7654 162.64 31.6816 162.267 32.9771 161.862C34.2765 161.498 35.4203 160.728 36.2355 159.667C37.0506 158.606 37.4928 157.312 37.4953 155.982C37.5237 155.169 37.3806 154.36 37.075 153.605C36.7695 152.85 36.308 152.166 35.72 151.596C35.1319 151.025 34.4301 150.581 33.6588 150.292C32.8875 150.003 32.0636 149.874 31.2393 149.914C30.3681 149.896 29.5022 150.052 28.694 150.372C27.8858 150.693 27.1522 151.172 26.5376 151.78C25.9231 152.389 25.4405 153.114 25.119 153.911C24.7975 154.709 24.6438 155.562 24.6674 156.42H27.6374C27.6261 155.947 27.7109 155.476 27.8869 155.035C28.0629 154.594 28.3265 154.192 28.6622 153.852C28.9979 153.513 29.3991 153.243 29.8421 153.059C30.2851 152.874 30.7611 152.778 31.2422 152.777C31.676 152.752 32.1102 152.82 32.5152 152.975C32.9201 153.13 33.2865 153.369 33.5892 153.676C33.892 153.983 34.1241 154.351 34.2697 154.754C34.4154 155.157 34.4712 155.587 34.4333 156.013C34.4142 156.703 34.1706 157.369 33.7382 157.912C33.3059 158.455 32.7078 158.848 32.0321 159.031L30.9894 159.438C29.9686 159.681 29.0774 160.291 28.4922 161.15C27.9071 162.009 27.6707 163.052 27.8298 164.074L27.8614 165.16ZM29.2832 171.884C29.5645 171.894 29.8449 171.848 30.1079 171.749C30.3709 171.651 30.6111 171.501 30.8143 171.309C31.0176 171.118 31.1797 170.888 31.2912 170.633C31.4027 170.379 31.4612 170.105 31.4633 169.828C31.4608 169.551 31.402 169.277 31.2904 169.023C31.1787 168.769 31.0165 168.539 30.8133 168.348C30.6101 168.156 30.37 168.007 30.1072 167.909C29.8444 167.81 29.5643 167.764 29.2832 167.774C29.0022 167.764 28.722 167.81 28.4592 167.909C28.1965 168.007 27.9564 168.156 27.7532 168.348C27.5499 168.539 27.3877 168.769 27.2761 169.023C27.1645 169.277 27.1056 169.551 27.1031 169.828C27.1053 170.105 27.1638 170.379 27.2753 170.633C27.3867 170.888 27.5489 171.118 27.7521 171.309C27.9554 171.501 28.1956 171.651 28.4586 171.749C28.7216 171.848 29.002 171.894 29.2832 171.884Z" fill="white"/>
<defs>
<filter id="filter0_d_1514_168590" x="0" y="11.1426" width="220.245" height="61.5" filterUnits="userSpaceOnUse" color-interpolation-filters="sRGB">
<feFlood flood-opacity="0" result="BackgroundImageFix"/>
<feColorMatrix in="SourceAlpha" type="matrix" values="0 0 0 0 0 0 0 0 0 0 0 0 0 0 0 0 0 0 127 0" result="hardAlpha"/>
<feOffset dy="3"/>
<feGaussianBlur stdDeviation="3"/>
<feColorMatrix type="matrix" values="0 0 0 0 0 0 0 0 0 0 0 0 0 0 0 0 0 0 0.161 0"/>
<feBlend mode="normal" in2="BackgroundImageFix" result="effect1_dropShadow_1514_168590"/>
<feBlend mode="normal" in="SourceGraphic" in2="effect1_dropShadow_1514_168590" result="shape"/>
</filter>
<filter id="filter1_d_1514_168590" x="61.7554" y="71.957" width="220.245" height="61.5" filterUnits="userSpaceOnUse" color-interpolation-filters="sRGB">
<feFlood flood-opacity="0" result="BackgroundImageFix"/>
<feColorMatrix in="SourceAlpha" type="matrix" values="0 0 0 0 0 0 0 0 0 0 0 0 0 0 0 0 0 0 127 0" result="hardAlpha"/>
<feOffset dy="3"/>
<feGaussianBlur stdDeviation="3"/>
<feColorMatrix type="matrix" values="0 0 0 0 0 0 0 0 0 0 0 0 0 0 0 0 0 0 0.161 0"/>
<feBlend mode="normal" in2="BackgroundImageFix" result="effect1_dropShadow_1514_168590"/>
<feBlend mode="normal" in="SourceGraphic" in2="effect1_dropShadow_1514_168590" result="shape"/>
</filter>
<filter id="filter2_d_1514_168590" x="0" y="132.771" width="220.245" height="61.5" filterUnits="userSpaceOnUse" color-interpolation-filters="sRGB">
<feFlood flood-opacity="0" result="BackgroundImageFix"/>
<feColorMatrix in="SourceAlpha" type="matrix" values="0 0 0 0 0 0 0 0 0 0 0 0 0 0 0 0 0 0 127 0" result="hardAlpha"/>
<feOffset dy="3"/>
<feGaussianBlur stdDeviation="3"/>
<feColorMatrix type="matrix" values="0 0 0 0 0 0 0 0 0 0 0 0 0 0 0 0 0 0 0.161 0"/>
<feBlend mode="normal" in2="BackgroundImageFix" result="effect1_dropShadow_1514_168590"/>
<feBlend mode="normal" in="SourceGraphic" in2="effect1_dropShadow_1514_168590" result="shape"/>
</filter>
<linearGradient id="paint0_linear_1514_168590" x1="143.872" y1="0" x2="143.872" y2="198" gradientUnits="userSpaceOnUse">
<stop stop-color="#E3ECFA"/>
<stop offset="1" stop-color="#DAE7FF"/>
</linearGradient>
</defs>
</svg>
