<svg width="19" height="19" viewBox="0 0 19 19" fill="none" xmlns="http://www.w3.org/2000/svg">
<path d="M13.5 1H5C3.93913 1 2.92172 1.42143 2.17157 2.17157C1.42143 2.92172 1 3.93913 1 5V13.5C1 14.5609 1.42143 15.5783 2.17157 16.3284C2.92172 17.0786 3.93913 17.5 5 17.5H11.843C12.3684 17.5 12.8887 17.3965 13.3741 17.1954C13.8595 16.9943 14.3005 16.6996 14.672 16.328L16.328 14.672C16.6996 14.3005 16.9943 13.8595 17.1954 13.3741C17.3965 12.8887 17.5 12.3684 17.5 11.843V5C17.5 3.93913 17.0786 2.92172 16.3284 2.17157C15.5783 1.42143 14.5609 1 13.5 1Z" stroke="#055B71" stroke-width="1.5" stroke-linecap="round" stroke-linejoin="round"/>
<path d="M17.5 11H14C13.2044 11 12.4413 11.3161 11.8787 11.8787C11.3161 12.4413 11 13.2044 11 14V17.5M5 5H12.5M5 9H10" stroke="#055B71" stroke-width="1.5" stroke-linecap="round" stroke-linejoin="round"/>
</svg>
